<svg xmlns="http://www.w3.org/2000/svg" viewBox="0 0 64 64">
  <defs>
    <linearGradient id="bronze" x1="0" y1="0" x2="1" y2="1">
      <stop offset="0%" stop-color="#B88746"/>
      <stop offset="100%" stop-color="#74491C"/>
    </linearGradient>
  </defs>
  <rect width="64" height="64" rx="14" fill="#F1E5CF"/>
  <path d="M15 13 H18 Q20 13 20 15 V18 H18 Q16 18 16 20 V22 H15 Z" fill="url(#bronze)"/>
  <path d="M49 13 H46 Q44 13 44 15 V18 H46 Q48 18 48 20 V22 H49 Z" fill="url(#bronze)"/>
  <rect x="16" y="18" width="32" height="4" rx="1" fill="url(#bronze)"/>
  <path d="M15 22 H49 L47 38 Q46 42 42 43 L22 43 Q18 42 17 38 Z" fill="url(#bronze)"/>
  <rect x="21" y="42" width="5" height="9" rx="2" fill="#8B5A26"/>
  <rect x="29.5" y="42" width="5" height="8" rx="2" fill="#7C4E20"/>
  <rect x="38" y="42" width="5" height="9" rx="2" fill="#8B5A26"/>
</svg>
